<mxfile host="app.diagrams.net" agent="Mozilla/5.0 (Windows NT 10.0; Win64; x64) AppleWebKit/537.36 (KHTML, like Gecko) Chrome/132.0.0.0 Safari/537.36" version="26.0.14">
  <diagram name="Page-1" id="Rh4PVr1R5lD2HRThpndE">
    <mxGraphModel dx="2614" dy="2091" grid="1" gridSize="10" guides="1" tooltips="1" connect="1" arrows="1" fold="1" page="1" pageScale="1" pageWidth="850" pageHeight="1100" math="0" shadow="0">
      <root>
        <mxCell id="0" />
        <mxCell id="1" parent="0" />
        <mxCell id="4rBIc2SUAON23f0wQjkw-1" value="Vehicle" style="rounded=0;whiteSpace=wrap;html=1;fontSize=20;fontStyle=1" vertex="1" parent="1">
          <mxGeometry x="70" y="330" width="140" height="60" as="geometry" />
        </mxCell>
        <mxCell id="4rBIc2SUAON23f0wQjkw-2" value="Owner" style="rounded=0;whiteSpace=wrap;html=1;fontSize=20;fontStyle=1" vertex="1" parent="1">
          <mxGeometry x="95" y="-50" width="140" height="60" as="geometry" />
        </mxCell>
        <mxCell id="4rBIc2SUAON23f0wQjkw-3" value="Transaction" style="rounded=0;whiteSpace=wrap;html=1;fontSize=20;fontStyle=1" vertex="1" parent="1">
          <mxGeometry x="395" y="495" width="140" height="60" as="geometry" />
        </mxCell>
        <mxCell id="4rBIc2SUAON23f0wQjkw-4" value="Vehicle Kilometers Tracking" style="rounded=0;whiteSpace=wrap;html=1;fontSize=20;fontStyle=1" vertex="1" parent="1">
          <mxGeometry x="410" y="55" width="230" height="80" as="geometry" />
        </mxCell>
        <mxCell id="4rBIc2SUAON23f0wQjkw-5" value="Booking" style="rounded=0;whiteSpace=wrap;html=1;fontSize=20;fontStyle=1" vertex="1" parent="1">
          <mxGeometry x="885" y="260" width="140" height="60" as="geometry" />
        </mxCell>
        <mxCell id="4rBIc2SUAON23f0wQjkw-6" value="Customer" style="rounded=0;whiteSpace=wrap;html=1;fontSize=20;fontStyle=1" vertex="1" parent="1">
          <mxGeometry x="730" y="508.18" width="140" height="60" as="geometry" />
        </mxCell>
        <mxCell id="4rBIc2SUAON23f0wQjkw-8" value="&lt;u&gt;&lt;font style=&quot;font-size: 14px;&quot;&gt;vehicle_id&lt;/font&gt;&lt;/u&gt;" style="ellipse;whiteSpace=wrap;html=1;" vertex="1" parent="1">
          <mxGeometry x="-70" y="230" width="130" height="50" as="geometry" />
        </mxCell>
        <mxCell id="4rBIc2SUAON23f0wQjkw-9" value="" style="endArrow=none;html=1;rounded=0;entryX=0.5;entryY=1;entryDx=0;entryDy=0;exitX=0;exitY=0.5;exitDx=0;exitDy=0;" edge="1" parent="1" source="4rBIc2SUAON23f0wQjkw-1" target="4rBIc2SUAON23f0wQjkw-8">
          <mxGeometry width="50" height="50" relative="1" as="geometry">
            <mxPoint x="120" y="320" as="sourcePoint" />
            <mxPoint x="170" y="270" as="targetPoint" />
          </mxGeometry>
        </mxCell>
        <mxCell id="4rBIc2SUAON23f0wQjkw-10" value="&lt;font style=&quot;font-size: 14px;&quot;&gt;number_plate&lt;/font&gt;" style="ellipse;whiteSpace=wrap;html=1;" vertex="1" parent="1">
          <mxGeometry x="-260" y="340" width="130" height="50" as="geometry" />
        </mxCell>
        <mxCell id="4rBIc2SUAON23f0wQjkw-11" value="&lt;font style=&quot;font-size: 14px;&quot;&gt;status&lt;/font&gt;" style="ellipse;whiteSpace=wrap;html=1;" vertex="1" parent="1">
          <mxGeometry x="-70" y="430" width="130" height="50" as="geometry" />
        </mxCell>
        <mxCell id="4rBIc2SUAON23f0wQjkw-12" value="&lt;font style=&quot;font-size: 14px;&quot;&gt;location&lt;/font&gt;" style="ellipse;whiteSpace=wrap;html=1;" vertex="1" parent="1">
          <mxGeometry x="-230" y="410" width="130" height="50" as="geometry" />
        </mxCell>
        <mxCell id="4rBIc2SUAON23f0wQjkw-13" value="&lt;span style=&quot;font-size: 14px;&quot;&gt;owner_id (FK)&lt;/span&gt;" style="ellipse;whiteSpace=wrap;html=1;" vertex="1" parent="1">
          <mxGeometry x="-230" y="250" width="130" height="50" as="geometry" />
        </mxCell>
        <mxCell id="4rBIc2SUAON23f0wQjkw-15" value="" style="endArrow=none;html=1;rounded=0;entryX=0.5;entryY=1;entryDx=0;entryDy=0;exitX=0;exitY=0.5;exitDx=0;exitDy=0;" edge="1" parent="1" source="4rBIc2SUAON23f0wQjkw-1" target="4rBIc2SUAON23f0wQjkw-13">
          <mxGeometry width="50" height="50" relative="1" as="geometry">
            <mxPoint x="110" y="335" as="sourcePoint" />
            <mxPoint x="5" y="290" as="targetPoint" />
          </mxGeometry>
        </mxCell>
        <mxCell id="4rBIc2SUAON23f0wQjkw-16" value="" style="endArrow=none;html=1;rounded=0;entryX=1;entryY=0.5;entryDx=0;entryDy=0;exitX=0;exitY=0.5;exitDx=0;exitDy=0;" edge="1" parent="1" source="4rBIc2SUAON23f0wQjkw-1" target="4rBIc2SUAON23f0wQjkw-10">
          <mxGeometry width="50" height="50" relative="1" as="geometry">
            <mxPoint x="120" y="345" as="sourcePoint" />
            <mxPoint x="15" y="300" as="targetPoint" />
          </mxGeometry>
        </mxCell>
        <mxCell id="4rBIc2SUAON23f0wQjkw-17" value="" style="endArrow=none;html=1;rounded=0;entryX=0.5;entryY=0;entryDx=0;entryDy=0;exitX=0;exitY=0.5;exitDx=0;exitDy=0;" edge="1" parent="1" source="4rBIc2SUAON23f0wQjkw-1" target="4rBIc2SUAON23f0wQjkw-12">
          <mxGeometry width="50" height="50" relative="1" as="geometry">
            <mxPoint x="100" y="340" as="sourcePoint" />
            <mxPoint x="-105" y="350" as="targetPoint" />
          </mxGeometry>
        </mxCell>
        <mxCell id="4rBIc2SUAON23f0wQjkw-20" value="&lt;font style=&quot;font-size: 14px;&quot;&gt;&lt;u&gt;owner_id&lt;/u&gt;&lt;/font&gt;" style="ellipse;whiteSpace=wrap;html=1;" vertex="1" parent="1">
          <mxGeometry x="-125" y="-205" width="130" height="50" as="geometry" />
        </mxCell>
        <mxCell id="4rBIc2SUAON23f0wQjkw-21" value="" style="endArrow=none;html=1;rounded=0;entryX=0.5;entryY=1;entryDx=0;entryDy=0;" edge="1" parent="1" target="4rBIc2SUAON23f0wQjkw-20">
          <mxGeometry width="50" height="50" relative="1" as="geometry">
            <mxPoint x="165" y="-50" as="sourcePoint" />
            <mxPoint x="-110" y="110" as="targetPoint" />
          </mxGeometry>
        </mxCell>
        <mxCell id="4rBIc2SUAON23f0wQjkw-22" value="&lt;font style=&quot;font-size: 14px;&quot;&gt;name&lt;/font&gt;" style="ellipse;whiteSpace=wrap;html=1;" vertex="1" parent="1">
          <mxGeometry x="105" y="-255" width="130" height="50" as="geometry" />
        </mxCell>
        <mxCell id="4rBIc2SUAON23f0wQjkw-23" value="&lt;span style=&quot;font-size: 14px;&quot;&gt;contact_number&lt;/span&gt;" style="ellipse;whiteSpace=wrap;html=1;" vertex="1" parent="1">
          <mxGeometry x="275" y="-220" width="130" height="50" as="geometry" />
        </mxCell>
        <mxCell id="4rBIc2SUAON23f0wQjkw-24" value="&lt;font style=&quot;font-size: 14px;&quot;&gt;email&lt;/font&gt;" style="ellipse;whiteSpace=wrap;html=1;" vertex="1" parent="1">
          <mxGeometry x="-45" y="-290" width="130" height="50" as="geometry" />
        </mxCell>
        <mxCell id="4rBIc2SUAON23f0wQjkw-25" value="&lt;span style=&quot;font-size: 14px;&quot;&gt;address&lt;/span&gt;" style="ellipse;whiteSpace=wrap;html=1;" vertex="1" parent="1">
          <mxGeometry x="205" y="-300" width="130" height="50" as="geometry" />
        </mxCell>
        <mxCell id="4rBIc2SUAON23f0wQjkw-27" value="" style="endArrow=none;html=1;rounded=0;entryX=0.5;entryY=1;entryDx=0;entryDy=0;exitX=0.5;exitY=0;exitDx=0;exitDy=0;" edge="1" parent="1" source="4rBIc2SUAON23f0wQjkw-2" target="4rBIc2SUAON23f0wQjkw-24">
          <mxGeometry width="50" height="50" relative="1" as="geometry">
            <mxPoint x="110" y="20" as="sourcePoint" />
            <mxPoint x="60" y="-120" as="targetPoint" />
          </mxGeometry>
        </mxCell>
        <mxCell id="4rBIc2SUAON23f0wQjkw-28" value="" style="endArrow=none;html=1;rounded=0;entryX=0.5;entryY=1;entryDx=0;entryDy=0;exitX=0.5;exitY=0;exitDx=0;exitDy=0;" edge="1" parent="1" source="4rBIc2SUAON23f0wQjkw-2" target="4rBIc2SUAON23f0wQjkw-22">
          <mxGeometry width="50" height="50" relative="1" as="geometry">
            <mxPoint x="120" y="30" as="sourcePoint" />
            <mxPoint x="70" y="-110" as="targetPoint" />
          </mxGeometry>
        </mxCell>
        <mxCell id="4rBIc2SUAON23f0wQjkw-29" value="" style="endArrow=none;html=1;rounded=0;entryX=0.5;entryY=1;entryDx=0;entryDy=0;exitX=0.5;exitY=0;exitDx=0;exitDy=0;" edge="1" parent="1" source="4rBIc2SUAON23f0wQjkw-2" target="4rBIc2SUAON23f0wQjkw-25">
          <mxGeometry width="50" height="50" relative="1" as="geometry">
            <mxPoint x="130" y="40" as="sourcePoint" />
            <mxPoint x="80" y="-100" as="targetPoint" />
          </mxGeometry>
        </mxCell>
        <mxCell id="4rBIc2SUAON23f0wQjkw-30" value="" style="endArrow=none;html=1;rounded=0;entryX=0.5;entryY=1;entryDx=0;entryDy=0;exitX=0.5;exitY=0;exitDx=0;exitDy=0;" edge="1" parent="1" source="4rBIc2SUAON23f0wQjkw-2" target="4rBIc2SUAON23f0wQjkw-23">
          <mxGeometry width="50" height="50" relative="1" as="geometry">
            <mxPoint x="140" y="50" as="sourcePoint" />
            <mxPoint x="90" y="-90" as="targetPoint" />
          </mxGeometry>
        </mxCell>
        <mxCell id="4rBIc2SUAON23f0wQjkw-31" value="&lt;p data-pm-slice=&quot;1 1 [&amp;quot;list&amp;quot;,{&amp;quot;spread&amp;quot;:false,&amp;quot;start&amp;quot;:315,&amp;quot;end&amp;quot;:415},&amp;quot;regular_list_item&amp;quot;,{&amp;quot;start&amp;quot;:315,&amp;quot;end&amp;quot;:336}]&quot;&gt;&lt;u&gt;&lt;font style=&quot;font-size: 14px;&quot;&gt;transaction_id&lt;/font&gt;&lt;/u&gt;&lt;/p&gt;" style="ellipse;whiteSpace=wrap;html=1;" vertex="1" parent="1">
          <mxGeometry x="80" y="630" width="130" height="50" as="geometry" />
        </mxCell>
        <mxCell id="4rBIc2SUAON23f0wQjkw-32" value="&lt;font style=&quot;font-size: 14px;&quot;&gt;amount&lt;/font&gt;" style="ellipse;whiteSpace=wrap;html=1;" vertex="1" parent="1">
          <mxGeometry x="275" y="670" width="130" height="50" as="geometry" />
        </mxCell>
        <mxCell id="4rBIc2SUAON23f0wQjkw-33" value="&lt;font style=&quot;font-size: 14px;&quot;&gt;vehicle_id (FK)&lt;/font&gt;" style="ellipse;whiteSpace=wrap;html=1;" vertex="1" parent="1">
          <mxGeometry x="405" y="638.18" width="130" height="50" as="geometry" />
        </mxCell>
        <mxCell id="4rBIc2SUAON23f0wQjkw-34" value="&lt;font style=&quot;font-size: 14px;&quot;&gt;payment_method&lt;/font&gt;" style="ellipse;whiteSpace=wrap;html=1;" vertex="1" parent="1">
          <mxGeometry x="145" y="700" width="130" height="50" as="geometry" />
        </mxCell>
        <mxCell id="4rBIc2SUAON23f0wQjkw-35" value="" style="endArrow=none;html=1;rounded=0;entryX=0.5;entryY=0;entryDx=0;entryDy=0;exitX=0.5;exitY=1;exitDx=0;exitDy=0;" edge="1" parent="1" source="4rBIc2SUAON23f0wQjkw-3" target="4rBIc2SUAON23f0wQjkw-31">
          <mxGeometry width="50" height="50" relative="1" as="geometry">
            <mxPoint x="-40" y="455" as="sourcePoint" />
            <mxPoint x="-75" y="510" as="targetPoint" />
          </mxGeometry>
        </mxCell>
        <mxCell id="4rBIc2SUAON23f0wQjkw-36" value="" style="endArrow=none;html=1;rounded=0;entryX=0.5;entryY=0;entryDx=0;entryDy=0;exitX=0.5;exitY=1;exitDx=0;exitDy=0;" edge="1" parent="1" source="4rBIc2SUAON23f0wQjkw-3" target="4rBIc2SUAON23f0wQjkw-34">
          <mxGeometry width="50" height="50" relative="1" as="geometry">
            <mxPoint x="265" y="590" as="sourcePoint" />
            <mxPoint x="155" y="640" as="targetPoint" />
          </mxGeometry>
        </mxCell>
        <mxCell id="4rBIc2SUAON23f0wQjkw-37" value="" style="endArrow=none;html=1;rounded=0;entryX=0.5;entryY=0;entryDx=0;entryDy=0;exitX=0.5;exitY=1;exitDx=0;exitDy=0;" edge="1" parent="1" source="4rBIc2SUAON23f0wQjkw-3" target="4rBIc2SUAON23f0wQjkw-32">
          <mxGeometry width="50" height="50" relative="1" as="geometry">
            <mxPoint x="275" y="600" as="sourcePoint" />
            <mxPoint x="165" y="650" as="targetPoint" />
          </mxGeometry>
        </mxCell>
        <mxCell id="4rBIc2SUAON23f0wQjkw-38" value="" style="endArrow=none;html=1;rounded=0;entryX=0.5;entryY=0;entryDx=0;entryDy=0;exitX=0.5;exitY=1;exitDx=0;exitDy=0;" edge="1" parent="1" source="4rBIc2SUAON23f0wQjkw-3" target="4rBIc2SUAON23f0wQjkw-33">
          <mxGeometry width="50" height="50" relative="1" as="geometry">
            <mxPoint x="285" y="610" as="sourcePoint" />
            <mxPoint x="175" y="660" as="targetPoint" />
          </mxGeometry>
        </mxCell>
        <mxCell id="4rBIc2SUAON23f0wQjkw-39" value="&lt;span style=&quot;font-size: 14px;&quot;&gt;&lt;u&gt;tracking_id&lt;/u&gt;&lt;/span&gt;" style="ellipse;whiteSpace=wrap;html=1;" vertex="1" parent="1">
          <mxGeometry x="710" y="-90" width="130" height="50" as="geometry" />
        </mxCell>
        <mxCell id="4rBIc2SUAON23f0wQjkw-40" value="&lt;font style=&quot;font-size: 14px;&quot;&gt;vehicle_id (FK)&lt;/font&gt;" style="ellipse;whiteSpace=wrap;html=1;" vertex="1" parent="1">
          <mxGeometry x="780" y="10" width="130" height="50" as="geometry" />
        </mxCell>
        <mxCell id="4rBIc2SUAON23f0wQjkw-41" value="&lt;font style=&quot;font-size: 14px;&quot;&gt;total_kms&lt;/font&gt;" style="ellipse;whiteSpace=wrap;html=1;" vertex="1" parent="1">
          <mxGeometry x="810" y="70" width="130" height="50" as="geometry" />
        </mxCell>
        <mxCell id="4rBIc2SUAON23f0wQjkw-42" value="&lt;font style=&quot;font-size: 14px;&quot;&gt;last_updated&lt;/font&gt;" style="ellipse;whiteSpace=wrap;html=1;" vertex="1" parent="1">
          <mxGeometry x="750" y="150" width="130" height="50" as="geometry" />
        </mxCell>
        <mxCell id="4rBIc2SUAON23f0wQjkw-43" value="" style="endArrow=none;html=1;rounded=0;entryX=0.5;entryY=1;entryDx=0;entryDy=0;exitX=1;exitY=0.5;exitDx=0;exitDy=0;" edge="1" parent="1" source="4rBIc2SUAON23f0wQjkw-4" target="4rBIc2SUAON23f0wQjkw-39">
          <mxGeometry width="50" height="50" relative="1" as="geometry">
            <mxPoint x="290" y="140" as="sourcePoint" />
            <mxPoint x="395" y="-60" as="targetPoint" />
          </mxGeometry>
        </mxCell>
        <mxCell id="4rBIc2SUAON23f0wQjkw-44" value="" style="endArrow=none;html=1;rounded=0;entryX=0;entryY=0.5;entryDx=0;entryDy=0;exitX=1;exitY=0.5;exitDx=0;exitDy=0;" edge="1" parent="1" source="4rBIc2SUAON23f0wQjkw-4" target="4rBIc2SUAON23f0wQjkw-40">
          <mxGeometry width="50" height="50" relative="1" as="geometry">
            <mxPoint x="780" y="80" as="sourcePoint" />
            <mxPoint x="895" y="-30" as="targetPoint" />
          </mxGeometry>
        </mxCell>
        <mxCell id="4rBIc2SUAON23f0wQjkw-45" value="" style="endArrow=none;html=1;rounded=0;entryX=0;entryY=0.5;entryDx=0;entryDy=0;exitX=1;exitY=0.5;exitDx=0;exitDy=0;" edge="1" parent="1" source="4rBIc2SUAON23f0wQjkw-4" target="4rBIc2SUAON23f0wQjkw-41">
          <mxGeometry width="50" height="50" relative="1" as="geometry">
            <mxPoint x="800" y="100" as="sourcePoint" />
            <mxPoint x="905" y="-20" as="targetPoint" />
          </mxGeometry>
        </mxCell>
        <mxCell id="4rBIc2SUAON23f0wQjkw-46" value="" style="endArrow=none;html=1;rounded=0;entryX=0.5;entryY=0;entryDx=0;entryDy=0;exitX=1;exitY=0.5;exitDx=0;exitDy=0;" edge="1" parent="1" source="4rBIc2SUAON23f0wQjkw-4" target="4rBIc2SUAON23f0wQjkw-42">
          <mxGeometry width="50" height="50" relative="1" as="geometry">
            <mxPoint x="810" y="110" as="sourcePoint" />
            <mxPoint x="915" y="-10" as="targetPoint" />
          </mxGeometry>
        </mxCell>
        <mxCell id="4rBIc2SUAON23f0wQjkw-48" value="&lt;span style=&quot;font-size: 14px;&quot;&gt;&lt;u&gt;booking_id&lt;/u&gt;&lt;/span&gt;" style="ellipse;whiteSpace=wrap;html=1;" vertex="1" parent="1">
          <mxGeometry x="1090" y="200" width="130" height="50" as="geometry" />
        </mxCell>
        <mxCell id="4rBIc2SUAON23f0wQjkw-49" value="&lt;font style=&quot;font-size: 14px;&quot;&gt;vehicle_id (FK)&lt;/font&gt;" style="ellipse;whiteSpace=wrap;html=1;" vertex="1" parent="1">
          <mxGeometry x="1180" y="260" width="130" height="50" as="geometry" />
        </mxCell>
        <mxCell id="4rBIc2SUAON23f0wQjkw-50" value="&lt;font style=&quot;font-size: 14px;&quot;&gt;customer_id (FK)&lt;/font&gt;" style="ellipse;whiteSpace=wrap;html=1;" vertex="1" parent="1">
          <mxGeometry x="1270" y="390" width="130" height="50" as="geometry" />
        </mxCell>
        <mxCell id="4rBIc2SUAON23f0wQjkw-51" value="&lt;font style=&quot;font-size: 14px;&quot;&gt;start_date&lt;/font&gt;" style="ellipse;whiteSpace=wrap;html=1;" vertex="1" parent="1">
          <mxGeometry x="1150" y="530" width="130" height="50" as="geometry" />
        </mxCell>
        <mxCell id="4rBIc2SUAON23f0wQjkw-52" value="&lt;font style=&quot;font-size: 14px;&quot;&gt;end_date&lt;/font&gt;" style="ellipse;whiteSpace=wrap;html=1;" vertex="1" parent="1">
          <mxGeometry x="1220" y="460" width="130" height="50" as="geometry" />
        </mxCell>
        <mxCell id="4rBIc2SUAON23f0wQjkw-53" value="&lt;font style=&quot;font-size: 14px;&quot;&gt;status&lt;/font&gt;" style="ellipse;whiteSpace=wrap;html=1;" vertex="1" parent="1">
          <mxGeometry x="1240" y="320" width="130" height="50" as="geometry" />
        </mxCell>
        <mxCell id="4rBIc2SUAON23f0wQjkw-54" value="" style="endArrow=none;html=1;rounded=0;entryX=0;entryY=0.5;entryDx=0;entryDy=0;exitX=1;exitY=0.5;exitDx=0;exitDy=0;" edge="1" parent="1" source="4rBIc2SUAON23f0wQjkw-5" target="4rBIc2SUAON23f0wQjkw-48">
          <mxGeometry width="50" height="50" relative="1" as="geometry">
            <mxPoint x="800" y="100" as="sourcePoint" />
            <mxPoint x="935" y="160" as="targetPoint" />
          </mxGeometry>
        </mxCell>
        <mxCell id="4rBIc2SUAON23f0wQjkw-55" value="" style="endArrow=none;html=1;rounded=0;entryX=0;entryY=0.5;entryDx=0;entryDy=0;exitX=1;exitY=0.5;exitDx=0;exitDy=0;" edge="1" parent="1" source="4rBIc2SUAON23f0wQjkw-5" target="4rBIc2SUAON23f0wQjkw-49">
          <mxGeometry width="50" height="50" relative="1" as="geometry">
            <mxPoint x="820" y="340" as="sourcePoint" />
            <mxPoint x="940" y="295" as="targetPoint" />
          </mxGeometry>
        </mxCell>
        <mxCell id="4rBIc2SUAON23f0wQjkw-56" value="" style="endArrow=none;html=1;rounded=0;entryX=0;entryY=0.5;entryDx=0;entryDy=0;exitX=1;exitY=0.5;exitDx=0;exitDy=0;" edge="1" parent="1" source="4rBIc2SUAON23f0wQjkw-5" target="4rBIc2SUAON23f0wQjkw-50">
          <mxGeometry width="50" height="50" relative="1" as="geometry">
            <mxPoint x="830" y="350" as="sourcePoint" />
            <mxPoint x="950" y="305" as="targetPoint" />
          </mxGeometry>
        </mxCell>
        <mxCell id="4rBIc2SUAON23f0wQjkw-57" value="" style="endArrow=none;html=1;rounded=0;entryX=0;entryY=0.5;entryDx=0;entryDy=0;exitX=1;exitY=0.5;exitDx=0;exitDy=0;" edge="1" parent="1" source="4rBIc2SUAON23f0wQjkw-5" target="4rBIc2SUAON23f0wQjkw-52">
          <mxGeometry width="50" height="50" relative="1" as="geometry">
            <mxPoint x="840" y="360" as="sourcePoint" />
            <mxPoint x="960" y="315" as="targetPoint" />
          </mxGeometry>
        </mxCell>
        <mxCell id="4rBIc2SUAON23f0wQjkw-58" value="" style="endArrow=none;html=1;rounded=0;entryX=1;entryY=0.5;entryDx=0;entryDy=0;exitX=0.5;exitY=1;exitDx=0;exitDy=0;" edge="1" parent="1" source="4rBIc2SUAON23f0wQjkw-5" target="4rBIc2SUAON23f0wQjkw-81">
          <mxGeometry width="50" height="50" relative="1" as="geometry">
            <mxPoint x="850" y="370" as="sourcePoint" />
            <mxPoint x="970" y="325" as="targetPoint" />
          </mxGeometry>
        </mxCell>
        <mxCell id="4rBIc2SUAON23f0wQjkw-59" value="" style="endArrow=none;html=1;rounded=0;entryX=0;entryY=0.5;entryDx=0;entryDy=0;exitX=1;exitY=0.5;exitDx=0;exitDy=0;" edge="1" parent="1" source="4rBIc2SUAON23f0wQjkw-5" target="4rBIc2SUAON23f0wQjkw-53">
          <mxGeometry width="50" height="50" relative="1" as="geometry">
            <mxPoint x="860" y="380" as="sourcePoint" />
            <mxPoint x="980" y="335" as="targetPoint" />
          </mxGeometry>
        </mxCell>
        <mxCell id="4rBIc2SUAON23f0wQjkw-60" value="&lt;font style=&quot;font-size: 14px;&quot;&gt;&lt;u&gt;customer_id&lt;/u&gt;&lt;/font&gt;" style="ellipse;whiteSpace=wrap;html=1;" vertex="1" parent="1">
          <mxGeometry x="900" y="608.1800000000001" width="130" height="50" as="geometry" />
        </mxCell>
        <mxCell id="4rBIc2SUAON23f0wQjkw-61" value="&lt;font style=&quot;font-size: 14px;&quot;&gt;name&lt;/font&gt;" style="ellipse;whiteSpace=wrap;html=1;" vertex="1" parent="1">
          <mxGeometry x="580" y="608.1800000000001" width="130" height="50" as="geometry" />
        </mxCell>
        <mxCell id="4rBIc2SUAON23f0wQjkw-62" value="&lt;font style=&quot;font-size: 14px;&quot;&gt;contact_number&lt;/font&gt;" style="ellipse;whiteSpace=wrap;html=1;" vertex="1" parent="1">
          <mxGeometry x="830" y="688.1800000000001" width="130" height="50" as="geometry" />
        </mxCell>
        <mxCell id="4rBIc2SUAON23f0wQjkw-63" value="&lt;font style=&quot;font-size: 14px;&quot;&gt;email&lt;/font&gt;" style="ellipse;whiteSpace=wrap;html=1;" vertex="1" parent="1">
          <mxGeometry x="680" y="698.1800000000001" width="130" height="50" as="geometry" />
        </mxCell>
        <mxCell id="4rBIc2SUAON23f0wQjkw-64" style="edgeStyle=orthogonalEdgeStyle;rounded=0;orthogonalLoop=1;jettySize=auto;html=1;exitX=0.5;exitY=1;exitDx=0;exitDy=0;" edge="1" parent="1" source="4rBIc2SUAON23f0wQjkw-63" target="4rBIc2SUAON23f0wQjkw-63">
          <mxGeometry relative="1" as="geometry" />
        </mxCell>
        <mxCell id="4rBIc2SUAON23f0wQjkw-65" value="" style="endArrow=none;html=1;rounded=0;entryX=1;entryY=0;entryDx=0;entryDy=0;exitX=0.5;exitY=1;exitDx=0;exitDy=0;" edge="1" parent="1" source="4rBIc2SUAON23f0wQjkw-6" target="4rBIc2SUAON23f0wQjkw-61">
          <mxGeometry width="50" height="50" relative="1" as="geometry">
            <mxPoint x="1130" y="468.18" as="sourcePoint" />
            <mxPoint x="1240" y="643.1800000000001" as="targetPoint" />
          </mxGeometry>
        </mxCell>
        <mxCell id="4rBIc2SUAON23f0wQjkw-66" value="" style="endArrow=none;html=1;rounded=0;entryX=0.5;entryY=0;entryDx=0;entryDy=0;exitX=0.5;exitY=1;exitDx=0;exitDy=0;" edge="1" parent="1" source="4rBIc2SUAON23f0wQjkw-6" target="4rBIc2SUAON23f0wQjkw-63">
          <mxGeometry width="50" height="50" relative="1" as="geometry">
            <mxPoint x="1140" y="478.18" as="sourcePoint" />
            <mxPoint x="1250" y="653.1800000000001" as="targetPoint" />
          </mxGeometry>
        </mxCell>
        <mxCell id="4rBIc2SUAON23f0wQjkw-67" value="" style="endArrow=none;html=1;rounded=0;entryX=0.5;entryY=0;entryDx=0;entryDy=0;exitX=0.5;exitY=1;exitDx=0;exitDy=0;" edge="1" parent="1" source="4rBIc2SUAON23f0wQjkw-6" target="4rBIc2SUAON23f0wQjkw-62">
          <mxGeometry width="50" height="50" relative="1" as="geometry">
            <mxPoint x="810" y="578.1800000000001" as="sourcePoint" />
            <mxPoint x="755" y="708.1800000000001" as="targetPoint" />
          </mxGeometry>
        </mxCell>
        <mxCell id="4rBIc2SUAON23f0wQjkw-68" value="" style="endArrow=none;html=1;rounded=0;entryX=0;entryY=0;entryDx=0;entryDy=0;exitX=0.5;exitY=1;exitDx=0;exitDy=0;" edge="1" parent="1" source="4rBIc2SUAON23f0wQjkw-6" target="4rBIc2SUAON23f0wQjkw-60">
          <mxGeometry width="50" height="50" relative="1" as="geometry">
            <mxPoint x="810" y="578.1800000000001" as="sourcePoint" />
            <mxPoint x="905" y="698.1800000000001" as="targetPoint" />
          </mxGeometry>
        </mxCell>
        <mxCell id="4rBIc2SUAON23f0wQjkw-69" value="" style="endArrow=none;html=1;rounded=0;entryX=0.5;entryY=0;entryDx=0;entryDy=0;exitX=0;exitY=0.5;exitDx=0;exitDy=0;" edge="1" parent="1" source="4rBIc2SUAON23f0wQjkw-1" target="4rBIc2SUAON23f0wQjkw-11">
          <mxGeometry width="50" height="50" relative="1" as="geometry">
            <mxPoint x="60" y="330" as="sourcePoint" />
            <mxPoint x="-95" y="360" as="targetPoint" />
          </mxGeometry>
        </mxCell>
        <mxCell id="4rBIc2SUAON23f0wQjkw-70" value="&lt;font style=&quot;font-size: 14px;&quot;&gt;Owned&lt;/font&gt;" style="rhombus;whiteSpace=wrap;html=1;rotation=-45;" vertex="1" parent="1">
          <mxGeometry x="70" y="100" width="180" height="80" as="geometry" />
        </mxCell>
        <mxCell id="4rBIc2SUAON23f0wQjkw-72" value="" style="endArrow=none;html=1;rounded=0;entryX=0.5;entryY=1;entryDx=0;entryDy=0;exitX=1;exitY=0.5;exitDx=0;exitDy=0;" edge="1" parent="1" source="4rBIc2SUAON23f0wQjkw-70" target="4rBIc2SUAON23f0wQjkw-2">
          <mxGeometry width="50" height="50" relative="1" as="geometry">
            <mxPoint x="348.6396103067891" y="26.360389693210436" as="sourcePoint" />
            <mxPoint x="145" y="70" as="targetPoint" />
          </mxGeometry>
        </mxCell>
        <mxCell id="4rBIc2SUAON23f0wQjkw-73" value="" style="endArrow=none;html=1;rounded=0;entryX=1;entryY=0;entryDx=0;entryDy=0;exitX=0;exitY=0.5;exitDx=0;exitDy=0;" edge="1" parent="1" source="4rBIc2SUAON23f0wQjkw-70" target="4rBIc2SUAON23f0wQjkw-1">
          <mxGeometry width="50" height="50" relative="1" as="geometry">
            <mxPoint x="409" y="286" as="sourcePoint" />
            <mxPoint x="290" y="200" as="targetPoint" />
          </mxGeometry>
        </mxCell>
        <mxCell id="4rBIc2SUAON23f0wQjkw-74" value="N" style="text;html=1;align=center;verticalAlign=middle;resizable=0;points=[];autosize=1;strokeColor=none;fillColor=none;" vertex="1" parent="1">
          <mxGeometry x="100" y="200" width="30" height="30" as="geometry" />
        </mxCell>
        <mxCell id="4rBIc2SUAON23f0wQjkw-75" value="1" style="text;html=1;align=center;verticalAlign=middle;resizable=0;points=[];autosize=1;strokeColor=none;fillColor=none;" vertex="1" parent="1">
          <mxGeometry x="180" y="60" width="30" height="30" as="geometry" />
        </mxCell>
        <mxCell id="4rBIc2SUAON23f0wQjkw-76" value="&lt;font style=&quot;font-size: 14px;&quot;&gt;Booked&lt;/font&gt;" style="rhombus;whiteSpace=wrap;html=1;rotation=0;" vertex="1" parent="1">
          <mxGeometry x="370" y="340" width="180" height="80" as="geometry" />
        </mxCell>
        <mxCell id="4rBIc2SUAON23f0wQjkw-77" value="" style="endArrow=none;html=1;rounded=0;entryX=1;entryY=0.5;entryDx=0;entryDy=0;exitX=0;exitY=0.5;exitDx=0;exitDy=0;" edge="1" parent="1" source="4rBIc2SUAON23f0wQjkw-76" target="4rBIc2SUAON23f0wQjkw-1">
          <mxGeometry width="50" height="50" relative="1" as="geometry">
            <mxPoint x="346" y="344" as="sourcePoint" />
            <mxPoint x="190" y="360" as="targetPoint" />
          </mxGeometry>
        </mxCell>
        <mxCell id="4rBIc2SUAON23f0wQjkw-78" value="" style="endArrow=none;html=1;rounded=0;exitX=1;exitY=0.5;exitDx=0;exitDy=0;entryX=0;entryY=0.5;entryDx=0;entryDy=0;" edge="1" parent="1" source="4rBIc2SUAON23f0wQjkw-76" target="4rBIc2SUAON23f0wQjkw-5">
          <mxGeometry width="50" height="50" relative="1" as="geometry">
            <mxPoint x="380" y="420" as="sourcePoint" />
            <mxPoint x="770" y="430" as="targetPoint" />
          </mxGeometry>
        </mxCell>
        <mxCell id="4rBIc2SUAON23f0wQjkw-79" value="N" style="text;html=1;align=center;verticalAlign=middle;resizable=0;points=[];autosize=1;strokeColor=none;fillColor=none;" vertex="1" parent="1">
          <mxGeometry x="540" y="380" width="30" height="30" as="geometry" />
        </mxCell>
        <mxCell id="4rBIc2SUAON23f0wQjkw-80" value="1" style="text;html=1;align=center;verticalAlign=middle;resizable=0;points=[];autosize=1;strokeColor=none;fillColor=none;" vertex="1" parent="1">
          <mxGeometry x="350" y="380" width="30" height="30" as="geometry" />
        </mxCell>
        <mxCell id="4rBIc2SUAON23f0wQjkw-81" value="&lt;font style=&quot;font-size: 14px;&quot;&gt;Bookings&lt;/font&gt;" style="rhombus;whiteSpace=wrap;html=1;rotation=-75;" vertex="1" parent="1">
          <mxGeometry x="870" y="395" width="180" height="80" as="geometry" />
        </mxCell>
        <mxCell id="4rBIc2SUAON23f0wQjkw-82" value="" style="endArrow=none;html=1;rounded=0;entryX=0;entryY=0.5;entryDx=0;entryDy=0;exitX=1;exitY=0;exitDx=0;exitDy=0;" edge="1" parent="1" source="4rBIc2SUAON23f0wQjkw-6" target="4rBIc2SUAON23f0wQjkw-81">
          <mxGeometry width="50" height="50" relative="1" as="geometry">
            <mxPoint x="810" y="578" as="sourcePoint" />
            <mxPoint x="929" y="626" as="targetPoint" />
          </mxGeometry>
        </mxCell>
        <mxCell id="4rBIc2SUAON23f0wQjkw-84" value="1" style="text;html=1;align=center;verticalAlign=middle;resizable=0;points=[];autosize=1;strokeColor=none;fillColor=none;" vertex="1" parent="1">
          <mxGeometry x="900" y="495" width="30" height="30" as="geometry" />
        </mxCell>
        <mxCell id="4rBIc2SUAON23f0wQjkw-85" value="N" style="text;html=1;align=center;verticalAlign=middle;resizable=0;points=[];autosize=1;strokeColor=none;fillColor=none;" vertex="1" parent="1">
          <mxGeometry x="950" y="335" width="30" height="30" as="geometry" />
        </mxCell>
        <mxCell id="4rBIc2SUAON23f0wQjkw-87" value="" style="endArrow=none;html=1;rounded=0;entryX=0;entryY=0.5;entryDx=0;entryDy=0;exitX=1;exitY=0.5;exitDx=0;exitDy=0;" edge="1" parent="1">
          <mxGeometry width="50" height="50" relative="1" as="geometry">
            <mxPoint x="1035" y="300" as="sourcePoint" />
            <mxPoint x="1160" y="565" as="targetPoint" />
          </mxGeometry>
        </mxCell>
        <mxCell id="4rBIc2SUAON23f0wQjkw-88" value="&lt;font style=&quot;font-size: 14px;&quot;&gt;results&lt;/font&gt;" style="rhombus;whiteSpace=wrap;html=1;rotation=-30;" vertex="1" parent="1">
          <mxGeometry x="640" y="373" width="180" height="90" as="geometry" />
        </mxCell>
        <mxCell id="4rBIc2SUAON23f0wQjkw-89" value="" style="endArrow=none;html=1;rounded=0;entryX=0;entryY=1;entryDx=0;entryDy=0;exitX=1;exitY=0.5;exitDx=0;exitDy=0;" edge="1" parent="1" source="4rBIc2SUAON23f0wQjkw-88" target="4rBIc2SUAON23f0wQjkw-5">
          <mxGeometry width="50" height="50" relative="1" as="geometry">
            <mxPoint x="816.6025403784438" y="368" as="sourcePoint" />
            <mxPoint x="895" y="300" as="targetPoint" />
          </mxGeometry>
        </mxCell>
        <mxCell id="4rBIc2SUAON23f0wQjkw-90" value="" style="endArrow=none;html=1;rounded=0;exitX=1;exitY=0;exitDx=0;exitDy=0;entryX=0;entryY=0.5;entryDx=0;entryDy=0;" edge="1" parent="1" source="4rBIc2SUAON23f0wQjkw-3" target="4rBIc2SUAON23f0wQjkw-88">
          <mxGeometry width="50" height="50" relative="1" as="geometry">
            <mxPoint x="818" y="385" as="sourcePoint" />
            <mxPoint x="643.3974596215562" y="468" as="targetPoint" />
          </mxGeometry>
        </mxCell>
        <mxCell id="4rBIc2SUAON23f0wQjkw-91" value="1" style="text;html=1;align=center;verticalAlign=middle;resizable=0;points=[];autosize=1;strokeColor=none;fillColor=none;" vertex="1" parent="1">
          <mxGeometry x="630" y="440" width="30" height="30" as="geometry" />
        </mxCell>
        <mxCell id="4rBIc2SUAON23f0wQjkw-92" value="1" style="text;html=1;align=center;verticalAlign=middle;resizable=0;points=[];autosize=1;strokeColor=none;fillColor=none;" vertex="1" parent="1">
          <mxGeometry x="790" y="350" width="30" height="30" as="geometry" />
        </mxCell>
        <mxCell id="4rBIc2SUAON23f0wQjkw-96" value="&lt;font style=&quot;font-size: 14px;&quot;&gt;Booked&lt;/font&gt;" style="rhombus;whiteSpace=wrap;html=1;rotation=0;" vertex="1" parent="1">
          <mxGeometry x="145" y="450" width="180" height="80" as="geometry" />
        </mxCell>
        <mxCell id="4rBIc2SUAON23f0wQjkw-97" value="" style="endArrow=none;html=1;rounded=0;entryX=1;entryY=1;entryDx=0;entryDy=0;exitX=0;exitY=0.5;exitDx=0;exitDy=0;" edge="1" parent="1" source="4rBIc2SUAON23f0wQjkw-96" target="4rBIc2SUAON23f0wQjkw-1">
          <mxGeometry width="50" height="50" relative="1" as="geometry">
            <mxPoint x="380" y="390" as="sourcePoint" />
            <mxPoint x="190" y="360" as="targetPoint" />
          </mxGeometry>
        </mxCell>
        <mxCell id="4rBIc2SUAON23f0wQjkw-98" value="" style="endArrow=none;html=1;rounded=0;entryX=1;entryY=0.5;entryDx=0;entryDy=0;exitX=0;exitY=0;exitDx=0;exitDy=0;" edge="1" parent="1" source="4rBIc2SUAON23f0wQjkw-3" target="4rBIc2SUAON23f0wQjkw-96">
          <mxGeometry width="50" height="50" relative="1" as="geometry">
            <mxPoint x="155" y="500" as="sourcePoint" />
            <mxPoint x="120" y="390" as="targetPoint" />
          </mxGeometry>
        </mxCell>
        <mxCell id="4rBIc2SUAON23f0wQjkw-99" value="1" style="text;html=1;align=center;verticalAlign=middle;resizable=0;points=[];autosize=1;strokeColor=none;fillColor=none;" vertex="1" parent="1">
          <mxGeometry x="135" y="458" width="30" height="30" as="geometry" />
        </mxCell>
        <mxCell id="4rBIc2SUAON23f0wQjkw-100" value="N" style="text;html=1;align=center;verticalAlign=middle;resizable=0;points=[];autosize=1;strokeColor=none;fillColor=none;" vertex="1" parent="1">
          <mxGeometry x="315" y="468" width="30" height="30" as="geometry" />
        </mxCell>
        <mxCell id="4rBIc2SUAON23f0wQjkw-101" value="&lt;font style=&quot;font-size: 14px;&quot;&gt;Run&lt;/font&gt;" style="rhombus;whiteSpace=wrap;html=1;rotation=0;" vertex="1" parent="1">
          <mxGeometry x="345" y="200" width="180" height="80" as="geometry" />
        </mxCell>
        <mxCell id="4rBIc2SUAON23f0wQjkw-102" value="" style="endArrow=none;html=1;rounded=0;entryX=1;entryY=0;entryDx=0;entryDy=0;exitX=0;exitY=0.5;exitDx=0;exitDy=0;" edge="1" parent="1" source="4rBIc2SUAON23f0wQjkw-101" target="4rBIc2SUAON23f0wQjkw-1">
          <mxGeometry width="50" height="50" relative="1" as="geometry">
            <mxPoint x="380" y="390" as="sourcePoint" />
            <mxPoint x="220" y="370" as="targetPoint" />
          </mxGeometry>
        </mxCell>
        <mxCell id="4rBIc2SUAON23f0wQjkw-103" value="" style="endArrow=none;html=1;rounded=0;entryX=1;entryY=0.5;entryDx=0;entryDy=0;exitX=1;exitY=1;exitDx=0;exitDy=0;" edge="1" parent="1" source="4rBIc2SUAON23f0wQjkw-4" target="4rBIc2SUAON23f0wQjkw-101">
          <mxGeometry width="50" height="50" relative="1" as="geometry">
            <mxPoint x="355" y="250" as="sourcePoint" />
            <mxPoint x="220" y="340" as="targetPoint" />
          </mxGeometry>
        </mxCell>
        <mxCell id="4rBIc2SUAON23f0wQjkw-104" value="1" style="text;html=1;align=center;verticalAlign=middle;resizable=0;points=[];autosize=1;strokeColor=none;fillColor=none;" vertex="1" parent="1">
          <mxGeometry x="325" y="208" width="30" height="30" as="geometry" />
        </mxCell>
        <mxCell id="4rBIc2SUAON23f0wQjkw-105" value="N" style="text;html=1;align=center;verticalAlign=middle;resizable=0;points=[];autosize=1;strokeColor=none;fillColor=none;" vertex="1" parent="1">
          <mxGeometry x="510" y="210" width="30" height="30" as="geometry" />
        </mxCell>
      </root>
    </mxGraphModel>
  </diagram>
</mxfile>
